# xmcd CD database generated by RipIT
#
# Track frame offsets:
# 150
# 46955
# 88440
# 127143
# 158533
#
# Disc length: 2601 seconds
#
# Revision: 1
# Processed by: cddbd v1.5.1PL2 Copyright (c) Steve Scherf et al.
# Submitted via: RipIT 3.3.3 www.suwald.com/ripit/ripit.html at Sa Mai 13 15:09:38 CEST 2006
#
DISCID=3e0a2705
DTITLE=Ron Carter-Hank Jones-Sadao Watanabe-Tony Williams - Carnaval
DYEAR=2002
DGENRE=Jazz
TTITLE0=Chelsea Bridge
TTITLE1=Manha De Carnaval
TTITLE2=I'm Old-Fashioned
TTITLE3=Confirmation
TTITLE4=Moose The Mooche
EXTD=YEAR: 2002\n
EXTT0=
EXTT1=
EXTT2=
EXTT3=
EXTT4=
PLAYORDER=
